<?xml version="1.0" encoding="utf-8"?>
<!-- Generator: Adobe Illustrator 16.0.0, SVG Export Plug-In . SVG Version: 6.00 Build 0)  -->
<!DOCTYPE svg PUBLIC "-//W3C//DTD SVG 1.1//EN" "http://www.w3.org/Graphics/SVG/1.1/DTD/svg11.dtd">
<svg version="1.1" id="Layer_1" xmlns="http://www.w3.org/2000/svg" xmlns:xlink="http://www.w3.org/1999/xlink" x="0px" y="0px"
	 width="27px" height="27px" viewBox="0 0 27 27" enable-background="new 0 0 27 27" xml:space="preserve">
<g>
	<path fill="#2F3335" d="M18.392,0H8.608C3.862,0,0,3.862,0,8.608v9.783C0,23.139,3.862,27,8.608,27h9.783
		C23.139,27,27,23.139,27,18.392V8.608C27,3.862,23.139,0,18.392,0z M12.119,5.351c0.328-0.325,0.725-0.487,1.189-0.487
		c0.458,0,0.851,0.163,1.179,0.487s0.492,0.719,0.492,1.184s-0.164,0.86-0.492,1.184c-0.328,0.325-0.721,0.487-1.179,0.487
		c-0.465,0-0.861-0.164-1.189-0.492s-0.492-0.721-0.492-1.179C11.626,6.07,11.791,5.676,12.119,5.351z M16.436,19.998h-5.763v-0.953
		h0.636c0.342,0,0.583-0.078,0.723-0.236c0.14-0.156,0.21-0.43,0.21-0.82v-5.557c0-0.349-0.101-0.619-0.302-0.81
		c-0.202-0.191-0.48-0.287-0.836-0.287h-0.431v-0.933l4.266-0.195v8.151c0,0.219,0.069,0.389,0.21,0.508
		c0.141,0.12,0.354,0.18,0.641,0.18h0.646V19.998z"/>
</g>
</svg>
